<svg version="1.1" id="Layer_1" xmlns="http://www.w3.org/2000/svg" xmlns:xlink="http://www.w3.org/1999/xlink" x="0px" y="0px"
	 width="100%" viewBox="0 0 512 512" enable-background="new 0 0 512 512" xml:space="preserve">
<path fill="#FF4B01" opacity="1.000000" stroke="none" 
	d="
M225.000000,1.000000 
	C246.020889,1.000000 267.041779,1.000000 288.313904,1.390965 
	C289.241364,2.178818 289.872162,2.781419 290.600525,2.942245 
	C305.516174,6.235686 320.655640,8.733639 335.314362,12.918127 
	C354.137695,18.291462 371.754547,26.789276 388.583862,36.876465 
	C412.181641,51.020527 432.902771,68.486908 450.905640,89.309273 
	C466.598602,107.459938 479.513916,127.301483 489.598480,149.074036 
	C500.488678,172.585922 507.876740,197.060455 511.079163,222.793503 
	C511.179077,223.596252 512.335938,224.267471 513.000000,225.000000 
	C513.000000,246.020889 513.000000,267.041779 512.609070,288.313904 
	C511.821228,289.241333 511.218567,289.872131 511.057739,290.600494 
	C507.764282,305.516174 505.266296,320.655701 501.081818,335.314392 
	C495.708496,354.137787 487.210663,371.754639 477.123505,388.583954 
	C462.979431,412.181702 445.513123,432.902924 424.690704,450.905731 
	C406.540009,466.598602 386.698517,479.513947 364.925964,489.598480 
	C341.414062,500.488678 316.939575,507.876862 291.206451,511.079224 
	C290.403717,511.179138 289.732513,512.335938 289.000000,513.000000 
	C267.979095,513.000000 246.958206,513.000000 225.686096,512.609009 
	C224.758698,511.821198 224.127960,511.218506 223.399658,511.057709 
	C208.483978,507.764313 193.344437,505.266479 178.685745,501.081909 
	C159.862411,495.708496 142.245483,487.210846 125.416176,477.123566 
	C101.818474,462.979401 81.097145,445.513214 63.094334,424.690765 
	C47.401432,406.540070 34.486153,386.698517 24.401550,364.926025 
	C13.511316,341.414124 6.123306,316.939575 2.920822,291.206512 
	C2.820916,290.403778 1.664093,289.732544 1.000002,289.000000 
	C1.000000,267.979095 1.000000,246.958206 1.390965,225.686096 
	C2.178816,224.758652 2.781425,224.127853 2.942247,223.399506 
	C6.235692,208.483826 8.733670,193.344345 12.918128,178.685623 
	C18.291424,159.862259 26.789312,142.245438 36.876507,125.416130 
	C51.020580,101.818382 68.486824,81.097145 89.309273,63.094315 
	C107.459976,47.401451 127.301491,34.486137 149.073990,24.401550 
	C172.585876,13.511312 197.060410,6.123265 222.793472,2.920813 
	C223.596237,2.820910 224.267456,1.664088 225.000000,1.000000 
M129.947708,371.039825 
	C129.947708,371.039825 129.907837,371.115173 129.970016,371.848907 
	C132.339447,375.359528 134.125793,379.530151 137.198547,382.244629 
	C143.782654,388.061035 150.747772,393.551697 158.063065,398.414185 
	C176.896881,410.933075 195.910233,423.191223 215.092941,435.167450 
	C218.597946,437.355682 223.219894,438.644836 227.363586,438.741058 
	C236.984421,438.964478 246.669617,438.648499 256.253387,437.748627 
	C273.595490,436.120270 290.926086,434.218201 308.175934,431.816254 
	C318.110962,430.432892 328.477997,429.628540 336.394592,422.008118 
	C340.826050,417.742401 345.663483,413.883118 349.937744,409.472198 
	C364.757874,394.178375 379.592712,378.890320 394.030823,363.239288 
	C399.136658,357.704559 405.029449,352.137634 405.834991,343.984741 
	C407.744019,324.663574 409.366180,305.313629 411.025909,285.968567 
	C411.735260,277.700500 412.834442,269.404633 412.678467,261.141724 
	C412.537598,253.677444 410.927490,246.240891 409.681610,238.196564 
	C409.507996,237.560242 409.334381,236.923920 409.288666,235.543259 
	C408.245850,232.778656 407.597809,229.776566 406.099518,227.285995 
	C390.187592,200.836349 372.027954,175.999100 352.191986,152.357208 
	C348.329071,147.753082 343.999451,144.166702 338.233215,142.349136 
	C332.518890,140.547958 326.933899,138.253815 321.131897,136.828079 
	C299.161346,131.429260 277.139008,126.237892 255.097260,121.136581 
	C252.428391,120.518898 251.422180,119.343513 250.562256,116.802269 
	C246.029129,103.406158 241.225388,90.100838 236.437332,76.792145 
	C234.262466,70.746948 230.291321,67.294693 223.424393,67.132027 
	C205.246719,66.701424 188.677795,71.986786 172.866348,80.440414 
	C166.586578,83.797897 164.217743,88.783806 165.407578,95.735931 
	C166.207596,100.410446 166.731781,105.132164 167.454010,110.374603 
	C165.523041,109.649216 164.305573,109.172157 163.074768,108.732460 
	C144.529770,102.107277 125.751801,96.486984 105.900749,95.506798 
	C94.754143,94.956406 86.941299,102.923820 87.807404,113.744278 
	C88.257713,119.370064 87.957077,125.075188 88.678635,130.656174 
	C90.359207,143.654785 91.709457,156.766754 94.569725,169.524231 
	C98.095398,185.249557 107.905838,198.017960 116.686096,211.180771 
	C117.631210,212.597626 117.986839,215.184860 117.373344,216.738556 
	C113.278938,227.107819 108.869667,237.353424 104.518211,247.620361 
	C99.922310,258.464081 97.895752,269.282349 101.459900,281.118439 
	C106.254272,297.039978 109.503372,313.429199 114.364586,329.327545 
	C118.583801,343.126282 124.123367,356.521240 129.268341,370.469940 
	C129.421692,370.712585 129.620529,370.909271 129.947708,371.039825 
z"/>
<path fill="#00000000" opacity="1.000000" stroke="none" 
	d="
M289.468658,513.000000 
	C289.732513,512.335938 290.403717,511.179138 291.206451,511.079224 
	C316.939575,507.876862 341.414062,500.488678 364.925964,489.598480 
	C386.698517,479.513947 406.540009,466.598602 424.690704,450.905731 
	C445.513123,432.902924 462.979431,412.181702 477.123505,388.583954 
	C487.210663,371.754639 495.708496,354.137787 501.081818,335.314392 
	C505.266296,320.655701 507.764282,305.516174 511.057739,290.600494 
	C511.218567,289.872131 511.821228,289.241333 512.609070,288.782532 
	C513.000000,363.593719 513.000000,438.187408 513.000000,513.000000 
	C438.645905,513.000000 364.291626,513.000000 289.468658,513.000000 
z"/>
<path fill="#00000000" opacity="1.000000" stroke="none" 
	d="
M1.000002,289.468658 
	C1.664093,289.732544 2.820916,290.403778 2.920822,291.206512 
	C6.123306,316.939575 13.511316,341.414124 24.401550,364.926025 
	C34.486153,386.698517 47.401432,406.540070 63.094334,424.690765 
	C81.097145,445.513214 101.818474,462.979401 125.416176,477.123566 
	C142.245483,487.210846 159.862411,495.708496 178.685745,501.081909 
	C193.344437,505.266479 208.483978,507.764313 223.399658,511.057709 
	C224.127960,511.218506 224.758698,511.821198 225.217438,512.609009 
	C150.406296,513.000000 75.812599,513.000000 1.000000,513.000000 
	C1.000000,438.645905 1.000000,364.291626 1.000002,289.468658 
z"/>
<path fill="#00000000" opacity="1.000000" stroke="none" 
	d="
M513.000000,224.531342 
	C512.335938,224.267471 511.179077,223.596252 511.079163,222.793503 
	C507.876740,197.060455 500.488678,172.585922 489.598480,149.074036 
	C479.513916,127.301483 466.598602,107.459938 450.905640,89.309273 
	C432.902771,68.486908 412.181641,51.020527 388.583862,36.876465 
	C371.754547,26.789276 354.137695,18.291462 335.314362,12.918127 
	C320.655640,8.733639 305.516174,6.235686 290.600525,2.942245 
	C289.872162,2.781419 289.241364,2.178818 288.782562,1.390965 
	C363.593719,1.000000 438.187408,1.000000 513.000000,1.000000 
	C513.000000,75.354088 513.000000,149.708389 513.000000,224.531342 
z"/>
<path fill="#00000000" opacity="1.000000" stroke="none" 
	d="
M224.531342,1.000000 
	C224.267456,1.664088 223.596237,2.820910 222.793472,2.920813 
	C197.060410,6.123265 172.585876,13.511312 149.073990,24.401550 
	C127.301491,34.486137 107.459976,47.401451 89.309273,63.094315 
	C68.486824,81.097145 51.020580,101.818382 36.876507,125.416130 
	C26.789312,142.245438 18.291424,159.862259 12.918128,178.685623 
	C8.733670,193.344345 6.235692,208.483826 2.942247,223.399506 
	C2.781425,224.127853 2.178816,224.758652 1.390965,225.217438 
	C1.000000,150.406296 1.000000,75.812576 1.000000,1.000000 
	C75.354088,1.000000 149.708389,1.000000 224.531342,1.000000 
z"/>
<path fill="#ECE1E0" opacity="1.000000" stroke="none" 
	d="
M129.079407,370.094666 
	C124.123367,356.521240 118.583801,343.126282 114.364586,329.327545 
	C109.503372,313.429199 106.254272,297.039978 101.459900,281.118439 
	C97.895752,269.282349 99.922310,258.464081 104.518211,247.620361 
	C108.869667,237.353424 113.278938,227.107819 117.373344,216.738556 
	C117.986839,215.184860 117.631210,212.597626 116.686096,211.180771 
	C107.905838,198.017960 98.095398,185.249557 94.569725,169.524231 
	C91.709457,156.766754 90.359207,143.654785 88.678635,130.656174 
	C87.957077,125.075188 88.257713,119.370064 87.807404,113.744278 
	C86.941299,102.923820 94.754143,94.956406 105.900749,95.506798 
	C125.751801,96.486984 144.529770,102.107277 163.074768,108.732460 
	C164.305573,109.172157 165.523041,109.649216 167.454010,110.374603 
	C166.731781,105.132164 166.207596,100.410446 165.407578,95.735931 
	C164.217743,88.783806 166.586578,83.797897 172.866348,80.440414 
	C188.677795,71.986786 205.246719,66.701424 223.424393,67.132027 
	C230.291321,67.294693 234.262466,70.746948 236.437332,76.792145 
	C241.225388,90.100838 246.029129,103.406158 250.562256,116.802269 
	C251.422180,119.343513 252.428391,120.518898 255.097260,121.136581 
	C277.139008,126.237892 299.161346,131.429260 321.131897,136.828079 
	C326.933899,138.253815 332.518890,140.547958 338.233215,142.349136 
	C343.999451,144.166702 348.329071,147.753082 352.191986,152.357208 
	C372.027954,175.999100 390.187592,200.836349 406.099518,227.285995 
	C407.597809,229.776566 408.245850,232.778656 409.130646,236.266052 
	C409.116882,239.950531 409.261169,242.912201 409.508453,246.265625 
	C409.471100,249.933914 409.330719,253.210449 409.102875,256.946106 
	C409.010345,258.934082 409.005280,260.462982 409.060669,262.425293 
	C408.812439,266.408295 408.503723,269.957855 408.106506,273.880920 
	C408.008209,275.836853 407.998444,277.419250 408.049377,279.423645 
	C407.806610,283.049622 407.503174,286.253571 407.113190,289.924316 
	C407.028320,291.946838 407.029999,293.502563 407.093628,295.488342 
	C406.552460,302.320679 405.949280,308.722931 405.213593,315.337769 
	C405.060211,316.043030 405.039337,316.535736 405.078339,317.375671 
	C404.847443,319.293121 404.556702,320.863281 404.176270,322.851318 
	C404.078461,323.554047 404.070343,323.838837 404.091675,324.518494 
	C403.960876,325.951965 403.800629,326.990601 403.449432,328.304993 
	C403.158203,329.687317 403.057983,330.793884 402.957733,332.278992 
	C402.795471,333.133514 402.633240,333.609497 402.318817,334.317261 
	C402.143494,335.094818 402.120392,335.640564 402.124817,336.551422 
	C401.979370,337.622711 401.806427,338.328857 401.453064,339.241882 
	C401.190552,339.981415 401.108521,340.514008 400.980225,341.390442 
	C400.701263,342.173828 400.529297,342.661133 400.227112,343.046173 
	C379.096344,369.970245 355.135590,394.174408 329.271973,416.518219 
	C327.233185,418.279510 324.385742,419.515594 321.720428,420.078125 
	C290.531250,426.660767 258.917267,429.389496 227.102463,430.353516 
	C220.536240,430.552460 214.631821,429.147308 209.081253,425.728607 
	C204.266251,422.762970 199.130188,420.273865 194.518906,417.029907 
	C172.909424,401.828003 151.432266,386.437988 129.907837,371.115173 
	C129.907837,371.115173 129.947708,371.039825 129.862762,370.827179 
	C129.638596,370.315460 129.405777,370.142151 129.079407,370.094666 
M403.151917,297.919861 
	C403.106598,297.277466 403.061310,296.635101 402.893707,295.106445 
	C403.206116,291.088776 403.518555,287.071136 404.330261,282.618073 
	C404.234131,281.411591 404.137970,280.205078 403.901154,278.123169 
	C404.214752,274.098999 404.528351,270.074799 405.339355,265.615540 
	C405.243744,264.410583 405.148132,263.205658 404.910156,261.072174 
	C404.987579,255.742722 404.832733,250.397232 405.199585,245.087784 
	C405.688293,238.015335 404.285828,231.659790 400.075195,225.814941 
	C384.421997,204.086288 369.046265,182.155960 353.225922,160.550644 
	C348.666046,154.323334 343.548462,148.687500 335.381714,146.106201 
	C308.195251,137.513321 280.686951,130.315353 252.624130,125.321342 
	C249.051056,124.685486 247.721649,123.087517 246.648376,119.908379 
	C241.967331,106.042664 236.929855,92.297653 232.184525,78.453033 
	C230.473495,73.461082 227.266266,71.365074 222.052612,71.486061 
	C205.050461,71.880608 189.260910,76.461861 174.480255,84.763901 
	C170.668793,86.904732 169.181580,89.982857 169.892380,94.334160 
	C171.170670,102.159569 172.279892,110.012604 173.407867,117.509224 
	C162.712723,113.831665 152.397659,109.546303 141.687943,106.799736 
	C129.814224,103.754662 117.642181,101.645050 105.479897,100.036621 
	C97.938538,99.039291 91.951881,104.892784 92.136192,111.742340 
	C92.359360,120.035599 92.834435,128.322495 93.234367,136.610504 
	C94.555145,163.981659 104.301895,188.153412 121.222359,209.507904 
	C123.538048,212.430420 123.471428,214.660934 122.037842,217.994019 
	C116.449677,230.986404 110.920319,244.031219 106.169594,257.342255 
	C104.465271,262.117584 103.811356,267.929932 104.747459,272.877411 
	C110.544800,303.517426 119.063263,333.443726 130.451050,362.490479 
	C131.766449,365.845642 134.438400,369.199890 137.377228,371.302368 
	C157.943726,386.015686 178.738068,400.410797 199.475754,414.884491 
	C210.796707,422.785797 222.860580,428.149078 237.178238,425.933746 
	C239.965302,425.502502 242.832275,425.612885 245.637695,425.270905 
	C270.079071,422.291321 294.535217,419.415436 318.929474,416.087158 
	C322.465332,415.604706 326.226898,413.499634 328.984711,411.108307 
	C351.802124,391.323334 372.736053,369.643036 392.017517,346.422577 
	C395.138306,342.664276 397.456451,337.554260 398.317841,332.741913 
	C400.366089,321.299103 401.319397,309.660309 403.151917,297.919861 
z"/>
<path fill="#BF3C0D" opacity="1.000000" stroke="none" 
	d="
M129.938934,371.482056 
	C151.432266,386.437988 172.909424,401.828003 194.518906,417.029907 
	C199.130188,420.273865 204.266251,422.762970 209.081253,425.728607 
	C214.631821,429.147308 220.536240,430.552460 227.102463,430.353516 
	C258.917267,429.389496 290.531250,426.660767 321.720428,420.078125 
	C324.385742,419.515594 327.233185,418.279510 329.271973,416.518219 
	C355.135590,394.174408 379.096344,369.970245 400.227112,343.046173 
	C400.529297,342.661133 400.701263,342.173828 401.173492,341.187805 
	C401.486481,340.105896 401.559967,339.570435 401.633484,339.035004 
	C401.806427,338.328857 401.979370,337.622711 402.272247,336.313843 
	C402.418457,335.169220 402.444733,334.627350 402.471008,334.085449 
	C402.633240,333.609497 402.795471,333.133514 403.143433,332.001221 
	C403.432922,330.239716 403.536652,329.134491 403.640411,328.029266 
	C403.800629,326.990601 403.960876,325.951965 404.243011,324.340424 
	C404.409454,323.616333 404.507141,323.457825 404.487488,323.315460 
	C404.446320,323.016937 404.343445,322.726929 404.265930,322.433441 
	C404.556702,320.863281 404.847443,319.293121 405.241241,317.172729 
	C405.344910,316.123413 405.345520,315.624329 405.346130,315.125214 
	C405.949280,308.722931 406.552460,302.320679 407.247650,295.173584 
	C407.293060,292.771698 407.246399,291.114624 407.199768,289.457550 
	C407.503174,286.253571 407.806610,283.049622 408.207397,279.119202 
	C408.268188,276.764313 408.231598,275.135864 408.195007,273.507416 
	C408.503723,269.957855 408.812439,266.408295 409.218323,262.120728 
	C409.273804,259.750824 409.232056,258.118896 409.190338,256.487000 
	C409.330719,253.210449 409.471100,249.933914 409.631470,245.846375 
	C409.756134,242.954300 409.860718,240.873199 409.965332,238.792099 
	C410.927490,246.240891 412.537598,253.677444 412.678467,261.141724 
	C412.834442,269.404633 411.735260,277.700500 411.025909,285.968567 
	C409.366180,305.313629 407.744019,324.663574 405.834991,343.984741 
	C405.029449,352.137634 399.136658,357.704559 394.030823,363.239288 
	C379.592712,378.890320 364.757874,394.178375 349.937744,409.472198 
	C345.663483,413.883118 340.826050,417.742401 336.394592,422.008118 
	C328.477997,429.628540 318.110962,430.432892 308.175934,431.816254 
	C290.926086,434.218201 273.595490,436.120270 256.253387,437.748627 
	C246.669617,438.648499 236.984421,438.964478 227.363586,438.741058 
	C223.219894,438.644836 218.597946,437.355682 215.092941,435.167450 
	C195.910233,423.191223 176.896881,410.933075 158.063065,398.414185 
	C150.747772,393.551697 143.782654,388.061035 137.198547,382.244629 
	C134.125793,379.530151 132.339447,375.359528 129.938934,371.482056 
z"/>
<path fill="#E6C9C6" opacity="1.000000" stroke="none" 
	d="
M409.823486,238.494324 
	C409.860718,240.873199 409.756134,242.954300 409.528503,245.454651 
	C409.261169,242.912201 409.116882,239.950531 409.066711,236.638229 
	C409.334381,236.923920 409.507996,237.560242 409.823486,238.494324 
z"/>
<path fill="#BF3C0D" opacity="1.000000" stroke="none" 
	d="
M129.173874,370.282288 
	C129.405777,370.142151 129.638596,370.315460 129.821350,370.837280 
	C129.620529,370.909271 129.421692,370.712585 129.173874,370.282288 
z"/>
<path fill="#16120D" opacity="1.000000" stroke="none" 
	d="
M403.830994,283.053467 
	C403.518555,287.071136 403.206116,291.088776 402.768311,295.771545 
	C402.666962,296.991333 402.691010,297.546021 402.715057,298.100677 
	C401.319397,309.660309 400.366089,321.299103 398.317841,332.741913 
	C397.456451,337.554260 395.138306,342.664276 392.017517,346.422577 
	C372.736053,369.643036 351.802124,391.323334 328.984711,411.108307 
	C326.226898,413.499634 322.465332,415.604706 318.929474,416.087158 
	C294.535217,419.415436 270.079071,422.291321 245.637695,425.270905 
	C242.832275,425.612885 239.965302,425.502502 237.178238,425.933746 
	C222.860580,428.149078 210.796707,422.785797 199.475754,414.884491 
	C178.738068,400.410797 157.943726,386.015686 137.377228,371.302368 
	C134.438400,369.199890 131.766449,365.845642 130.451050,362.490479 
	C119.063263,333.443726 110.544800,303.517426 104.747459,272.877411 
	C103.811356,267.929932 104.465271,262.117584 106.169594,257.342255 
	C110.920319,244.031219 116.449677,230.986404 122.037842,217.994019 
	C123.471428,214.660934 123.538048,212.430420 121.222359,209.507904 
	C104.301895,188.153412 94.555145,163.981659 93.234367,136.610504 
	C92.834435,128.322495 92.359360,120.035599 92.136192,111.742340 
	C91.951881,104.892784 97.938538,99.039291 105.479897,100.036621 
	C117.642181,101.645050 129.814224,103.754662 141.687943,106.799736 
	C152.397659,109.546303 162.712723,113.831665 173.407867,117.509224 
	C172.279892,110.012604 171.170670,102.159569 169.892380,94.334160 
	C169.181580,89.982857 170.668793,86.904732 174.480255,84.763901 
	C189.260910,76.461861 205.050461,71.880608 222.052612,71.486061 
	C227.266266,71.365074 230.473495,73.461082 232.184525,78.453033 
	C236.929855,92.297653 241.967331,106.042664 246.648376,119.908379 
	C247.721649,123.087517 249.051056,124.685486 252.624130,125.321342 
	C280.686951,130.315353 308.195251,137.513321 335.381714,146.106201 
	C343.548462,148.687500 348.666046,154.323334 353.225922,160.550644 
	C369.046265,182.155960 384.421997,204.086288 400.075195,225.814941 
	C404.285828,231.659790 405.688293,238.015335 405.199585,245.087784 
	C404.832733,250.397232 404.987579,255.742722 404.809753,261.785889 
	C404.753510,263.683258 404.797699,264.866943 404.841919,266.050629 
	C404.528351,270.074799 404.214752,274.098999 403.800293,278.810913 
	C403.743317,280.683624 403.787170,281.868530 403.830994,283.053467 
M230.832550,93.231026 
	C229.275818,89.211807 227.956924,85.073837 226.039963,81.234489 
	C225.319397,79.791321 223.183121,78.080788 221.739685,78.122772 
	C206.548492,78.564552 192.156677,82.283791 179.025726,90.051750 
	C177.607605,90.890686 176.471710,93.911705 176.764099,95.659706 
	C178.626831,106.795410 180.927032,117.857933 183.044342,129.795776 
	C183.050262,130.654144 183.056198,131.512497 182.378860,132.125580 
	C172.938934,127.052979 163.499008,121.980377 153.438965,116.535355 
	C147.705093,114.803673 142.057892,112.659935 136.218109,111.431862 
	C126.153488,109.315323 115.997261,107.577309 105.821159,106.075638 
	C101.685432,105.465324 98.496254,107.311043 98.677505,112.182114 
	C99.073112,122.813736 99.056450,133.501419 100.227692,144.053040 
	C101.657990,156.938492 103.896736,169.776093 110.928879,181.886169 
	C117.643875,191.764282 124.358864,201.642380 131.030258,212.223114 
	C124.527840,228.067093 117.777878,243.817047 111.699593,259.822083 
	C110.207283,263.751587 109.713440,268.835907 110.792885,272.841583 
	C118.231064,300.443878 126.222015,327.897003 134.001541,355.407623 
	C135.708679,361.444550 139.031418,366.164886 145.003738,369.739197 
	C168.082779,387.590332 192.014557,404.173431 217.600281,418.264496 
	C219.548874,419.337646 221.992294,420.104065 224.184174,420.054871 
	C255.866669,419.343475 287.331421,416.406555 318.431488,410.152191 
	C320.442017,409.747864 322.561920,408.705139 324.109894,407.359863 
	C347.921417,386.666199 369.715454,364.002502 389.696655,339.598999 
	C390.806854,338.243073 391.778046,336.484406 392.065308,334.786560 
	C397.359406,303.495361 399.427887,271.943634 399.029724,240.241882 
	C398.989899,237.069260 396.734009,233.924454 395.326782,230.075455 
	C381.240662,210.065292 366.953796,190.192352 353.146149,169.991867 
	C345.262268,158.457886 335.306763,150.507370 321.367615,147.970078 
	C319.574219,147.643646 317.864685,146.880341 316.082123,146.466690 
	C291.758850,140.822189 267.429504,135.203659 242.942047,128.896591 
	C242.224106,126.893120 241.481934,124.897957 240.792358,122.884766 
	C237.490692,113.245407 234.203278,103.601166 230.832550,93.231026 
z"/>
<path fill="#C3C3C3" opacity="1.000000" stroke="none" 
	d="
M405.090637,265.833069 
	C404.797699,264.866943 404.753510,263.683258 404.880920,262.250122 
	C405.148132,263.205658 405.243744,264.410583 405.090637,265.833069 
z"/>
<path fill="#C3C3C3" opacity="1.000000" stroke="none" 
	d="
M404.080627,282.835754 
	C403.787170,281.868530 403.743317,280.683624 403.870636,279.248657 
	C404.137970,280.205078 404.234131,281.411591 404.080627,282.835754 
z"/>
<path fill="#E6C9C6" opacity="1.000000" stroke="none" 
	d="
M408.106506,273.880920 
	C408.231598,275.135864 408.268188,276.764313 408.146729,278.697205 
	C407.998444,277.419250 408.008209,275.836853 408.106506,273.880920 
z"/>
<path fill="#E6C9C6" opacity="1.000000" stroke="none" 
	d="
M409.102875,256.946106 
	C409.232056,258.118896 409.273804,259.750824 409.157867,261.687286 
	C409.005280,260.462982 409.010345,258.934082 409.102875,256.946106 
z"/>
<path fill="#E6C9C6" opacity="1.000000" stroke="none" 
	d="
M407.113220,289.924316 
	C407.246399,291.114624 407.293060,292.771698 407.185669,294.743530 
	C407.029999,293.502563 407.028320,291.946838 407.113220,289.924316 
z"/>
<path fill="#C3C3C3" opacity="1.000000" stroke="none" 
	d="
M402.933472,298.010254 
	C402.691010,297.546021 402.666962,296.991333 402.829468,296.214691 
	C403.061310,296.635101 403.106598,297.277466 402.933472,298.010254 
z"/>
<path fill="#E6C9C6" opacity="1.000000" stroke="none" 
	d="
M403.449432,328.304993 
	C403.536652,329.134491 403.432922,330.239716 403.143494,331.622681 
	C403.057983,330.793884 403.158203,329.687317 403.449432,328.304993 
z"/>
<path fill="#E6C9C6" opacity="1.000000" stroke="none" 
	d="
M405.213593,315.337769 
	C405.345520,315.624329 405.344910,316.123413 405.181396,316.825470 
	C405.039337,316.535736 405.060211,316.043030 405.213593,315.337769 
z"/>
<path fill="#E6C9C6" opacity="1.000000" stroke="none" 
	d="
M402.318787,334.317261 
	C402.444733,334.627350 402.418457,335.169220 402.244751,335.948700 
	C402.120392,335.640564 402.143494,335.094818 402.318787,334.317261 
z"/>
<path fill="#E6C9C6" opacity="1.000000" stroke="none" 
	d="
M401.453033,339.241882 
	C401.559967,339.570435 401.486481,340.105896 401.219727,340.843994 
	C401.108521,340.514008 401.190552,339.981415 401.453033,339.241882 
z"/>
<path fill="#E6C9C6" opacity="1.000000" stroke="none" 
	d="
M404.176270,322.851318 
	C404.343445,322.726929 404.446320,323.016937 404.487488,323.315460 
	C404.507141,323.457825 404.409454,323.616333 404.213562,323.945618 
	C404.070343,323.838837 404.078461,323.554047 404.176270,322.851318 
z"/>
<path fill="#FE8800" opacity="1.000000" stroke="none" 
	d="
M144.643631,369.144318 
	C139.031418,366.164886 135.708679,361.444550 134.001541,355.407623 
	C126.222015,327.897003 118.231064,300.443878 110.792885,272.841583 
	C109.713440,268.835907 110.207283,263.751587 111.699593,259.822083 
	C117.777878,243.817047 124.527840,228.067093 131.365448,211.652252 
	C134.789963,204.651672 138.168442,198.342392 140.907104,191.766647 
	C146.228470,178.989578 154.535599,169.547119 167.517746,163.853470 
	C178.422028,159.071075 188.755417,152.987015 199.702911,147.404083 
	C201.879318,146.535004 203.679291,145.704208 205.511902,144.953079 
	C218.037994,139.818939 230.570938,134.701523 243.101685,129.578720 
	C267.429504,135.203659 291.758850,140.822189 316.082123,146.466690 
	C317.864685,146.880341 319.574219,147.643646 321.367615,147.970078 
	C335.306763,150.507370 345.262268,158.457886 353.146149,169.991867 
	C366.953796,190.192352 381.240662,210.065292 395.056091,230.600189 
	C393.862701,232.600479 392.290039,234.010910 392.134521,235.563293 
	C391.581787,241.081284 388.259705,244.031143 383.684937,246.319397 
	C381.184814,247.569931 378.866760,249.238708 376.609894,250.912048 
	C366.369720,258.504517 358.684265,268.915283 347.290344,275.461639 
	C331.607239,284.472260 317.089020,295.491333 301.551605,304.779877 
	C284.736603,314.832184 267.659149,324.571777 250.066833,333.158386 
	C235.478668,340.278717 220.225952,346.274048 204.816696,351.416565 
	C184.994598,358.031738 164.722122,363.297394 144.643631,369.144318 
z"/>
<path fill="#FE6B00" opacity="1.000000" stroke="none" 
	d="
M144.823685,369.441772 
	C164.722122,363.297394 184.994598,358.031738 204.816696,351.416565 
	C220.225952,346.274048 235.478668,340.278717 250.066833,333.158386 
	C267.659149,324.571777 284.736603,314.832184 301.551605,304.779877 
	C317.089020,295.491333 331.607239,284.472260 347.290344,275.461639 
	C358.684265,268.915283 366.369720,258.504517 376.609894,250.912048 
	C378.866760,249.238708 381.184814,247.569931 383.684937,246.319397 
	C388.259705,244.031143 391.581787,241.081284 392.134521,235.563293 
	C392.290039,234.010910 393.862701,232.600479 395.145996,230.945831 
	C396.734009,233.924454 398.989899,237.069260 399.029724,240.241882 
	C399.427887,271.943634 397.359406,303.495361 392.065308,334.786560 
	C391.778046,336.484406 390.806854,338.243073 389.696655,339.598999 
	C369.715454,364.002502 347.921417,386.666199 324.109894,407.359863 
	C322.561920,408.705139 320.442017,409.747864 318.431488,410.152191 
	C287.331421,416.406555 255.866669,419.343475 224.184174,420.054871 
	C221.992294,420.104065 219.548874,419.337646 217.600281,418.264496 
	C192.014557,404.173431 168.082779,387.590332 144.823685,369.441772 
z"/>
<path fill="#34902E" opacity="1.000000" stroke="none" 
	d="
M199.341553,147.479248 
	C188.755417,152.987015 178.422028,159.071075 167.517746,163.853470 
	C154.535599,169.547119 146.228470,178.989578 140.907104,191.766647 
	C138.168442,198.342392 134.789963,204.651672 131.387238,211.300934 
	C124.358864,201.642380 117.643875,191.764282 111.209137,181.442902 
	C128.354828,169.503876 139.638290,153.485703 147.937302,135.236221 
	C150.589203,129.404739 152.052139,123.032562 154.059082,116.907776 
	C163.499008,121.980377 172.938934,127.052979 182.879852,132.501923 
	C188.701096,137.745239 194.021332,142.612244 199.341553,147.479248 
z"/>
<path fill="#49CF42" opacity="1.000000" stroke="none" 
	d="
M153.749023,116.721565 
	C152.052139,123.032562 150.589203,129.404739 147.937302,135.236221 
	C139.638290,153.485703 128.354828,169.503876 111.135315,181.097534 
	C103.896736,169.776093 101.657990,156.938492 100.227692,144.053040 
	C99.056450,133.501419 99.073112,122.813736 98.677505,112.182114 
	C98.496254,107.311043 101.685432,105.465324 105.821159,106.075638 
	C115.997261,107.577309 126.153488,109.315323 136.218109,111.431862 
	C142.057892,112.659935 147.705093,114.803673 153.749023,116.721565 
z"/>
<path fill="#683811" opacity="1.000000" stroke="none" 
	d="
M183.083160,128.944550 
	C180.927032,117.857933 178.626831,106.795410 176.764099,95.659706 
	C176.471710,93.911705 177.607605,90.890686 179.025726,90.051750 
	C192.156677,82.283791 206.548492,78.564552 221.739685,78.122772 
	C223.183121,78.080788 225.319397,79.791321 226.039963,81.234489 
	C227.956924,85.073837 229.275818,89.211807 230.540985,93.657135 
	C229.311401,94.744591 228.316650,95.338928 227.444122,96.077614 
	C218.467468,103.677200 209.764206,111.630188 200.449539,118.788208 
	C195.174362,122.842018 188.904831,125.601898 183.083160,128.944550 
z"/>
<path fill="#4A280C" opacity="1.000000" stroke="none" 
	d="
M183.063751,129.370163 
	C188.904831,125.601898 195.174362,122.842018 200.449539,118.788208 
	C209.764206,111.630188 218.467468,103.677200 227.444122,96.077614 
	C228.316650,95.338928 229.311401,94.744591 230.580109,94.020950 
	C234.203278,103.601166 237.490692,113.245407 240.792358,122.884766 
	C241.481934,124.897957 242.224106,126.893120 243.021866,129.237656 
	C230.570938,134.701523 218.037994,139.818939 205.511902,144.953079 
	C203.679291,145.704208 201.879318,146.535004 199.702911,147.404099 
	C194.021332,142.612244 188.701096,137.745239 183.221497,132.624557 
	C183.056198,131.512497 183.050262,130.654144 183.063751,129.370163 
z"/>
</svg>