<?xml version="1.0" encoding="UTF-8" standalone="yes"?><svg xmlns="http://www.w3.org/2000/svg" version="1.2" width="512" height="512" baseProfile="tiny-ps"><title>EfazDev</title><path d="M0 0 C0.92220337 0.00182281 1.84440674 0.00364563 2.79455566 0.00552368 C16.841657 0.05219735 30.55997339 0.56067231 44.375 3.3125 C45.27976074 3.48942383 46.18452148 3.66634766 47.11669922 3.84863281 C53.58657431 5.14731809 59.98813627 6.65502172 66.375 8.3125 C67.62095947 8.63492676 67.62095947 8.63492676 68.89208984 8.96386719 C103.17583645 18.0563653 134.94322134 34.94908514 162.375 57.3125 C162.92575195 57.76028809 163.47650391 58.20807617 164.04394531 58.66943359 C177.40993434 69.62497503 189.7986461 81.61848954 200.375 95.3125 C201.53515625 96.74722656 201.53515625 96.74722656 202.71875 98.2109375 C238.24029381 142.83768716 256.92122501 199.14424287 256.6875 255.9375 C256.68476578 257.32080505 256.68476578 257.32080505 256.68197632 258.73205566 C256.63530265 272.779157 256.12682769 286.49747339 253.375 300.3125 C253.19807617 301.21726074 253.02115234 302.12202148 252.83886719 303.05419922 C251.54018191 309.52407431 250.03247828 315.92563627 248.375 322.3125 C248.16004883 323.14313965 247.94509766 323.9737793 247.72363281 324.82958984 C238.6311347 359.11333645 221.73841486 390.88072134 199.375 418.3125 C198.92721191 418.86325195 198.47942383 419.41400391 198.01806641 419.98144531 C187.06252497 433.34743434 175.06901046 445.7361461 161.375 456.3125 C159.94027344 457.47265625 159.94027344 457.47265625 158.4765625 458.65625 C113.84981284 494.17779381 57.54325713 512.85872501 0.75 512.625 C-0.17220337 512.62317719 -1.09440674 512.62135437 -2.04455566 512.61947632 C-16.091657 512.57280265 -29.80997339 512.06432769 -43.625 509.3125 C-44.52976074 509.13557617 -45.43452148 508.95865234 -46.36669922 508.77636719 C-52.83657431 507.47768191 -59.23813627 505.96997828 -65.625 504.3125 C-66.45563965 504.09754883 -67.2862793 503.88259766 -68.14208984 503.66113281 C-102.42583645 494.5686347 -134.19322134 477.67591486 -161.625 455.3125 C-162.17575195 454.86471191 -162.72650391 454.41692383 -163.29394531 453.95556641 C-176.65993434 443.00002497 -189.0486461 431.00651046 -199.625 417.3125 C-200.78515625 415.87777344 -200.78515625 415.87777344 -201.96875 414.4140625 C-237.49029381 369.78731284 -256.17122501 313.48075713 -255.9375 256.6875 C-255.93567719 255.76529663 -255.93385437 254.84309326 -255.93197632 253.89294434 C-255.88530265 239.845843 -255.37682769 226.12752661 -252.625 212.3125 C-252.44807617 211.40773926 -252.27115234 210.50297852 -252.08886719 209.57080078 C-250.79018191 203.10092569 -249.28247828 196.69936373 -247.625 190.3125 C-247.41004883 189.48186035 -247.19509766 188.6512207 -246.97363281 187.79541016 C-237.8811347 153.51166355 -220.98841486 121.74427866 -198.625 94.3125 C-198.17721191 93.76174805 -197.72942383 93.21099609 -197.26806641 92.64355469 C-186.31252497 79.27756566 -174.31901046 66.8888539 -160.625 56.3125 C-159.19027344 55.15234375 -159.19027344 55.15234375 -157.7265625 53.96875 C-113.09981284 18.44720619 -56.79325713 -0.23372501 0 0 Z " fill="#FE4B00" transform="translate(255.625,-0.3125)"></path><path d="M0 0 C0 4.49813342 0 4.49813342 -2.58984375 7.1640625 C-3.12673828 7.72867188 -3.66363281 8.29328125 -4.21679688 8.875 C-4.78462891 9.4525 -5.35246094 10.03 -5.9375 10.625 C-9.91679683 14.48116954 -9.91679683 14.48116954 -13 19 C-12.35160156 18.95359375 -11.70320312 18.9071875 -11.03515625 18.859375 C7.34223319 18.18320298 25.97915802 22.26978899 43 29 C43.66757324 29.25620117 44.33514648 29.51240234 45.02294922 29.77636719 C60.81533152 35.90865888 75.34729191 44.73747799 88 56 C88.87140625 56.75152344 89.7428125 57.50304687 90.640625 58.27734375 C95.8745746 62.86096727 100.62553443 67.59241597 105 73 C106.15628906 74.41732422 106.15628906 74.41732422 107.3359375 75.86328125 C128.73946952 102.58645329 140.67034534 134.83983395 140.39111328 169.15673828 C140.37500265 171.49961501 140.39109299 173.84076786 140.41015625 176.18359375 C140.45849869 210.60565878 126.92983258 245.34042545 104 271 C103.15953125 271.97195313 102.3190625 272.94390625 101.453125 273.9453125 C91.15916744 285.68482855 79.46113728 295.12030989 66 303 C65.35579102 303.37898438 64.71158203 303.75796875 64.04785156 304.1484375 C28.23447555 324.90174047 -14.27186218 329.35270854 -54.125 318.8125 C-75.10029367 312.8468594 -94.44489229 302.07676713 -111 288 C-111.93972656 287.20207031 -112.87945312 286.40414063 -113.84765625 285.58203125 C-119.01271516 281.05578808 -123.6411786 276.30072763 -128 271 C-128.61230469 270.28714844 -129.22460938 269.57429688 -129.85546875 268.83984375 C-157.46620209 235.82820848 -167.25392249 194.13004787 -163.73193359 151.77636719 C-160.00779612 119.38111189 -144.41409819 91.74781736 -124 67 C-125.8253125 66.443125 -125.8253125 66.443125 -127.6875 65.875 C-131.59842518 64.58147972 -135.23031769 62.97993206 -138.9375 61.1875 C-151.66736038 55.23511158 -164.87398074 51.49762385 -178.65209961 48.82397461 C-183.67703102 47.79170529 -187.38728622 46.91194866 -191 43 C-192.22919566 40.3131741 -192.3526617 37.92205411 -192 35 C-189.73188682 30.62019523 -189.73188682 30.62019523 -187 29 C-180.40683306 28.04801755 -173.82623257 29.35272247 -167.4375 30.9375 C-166.1222937 31.25497192 -166.1222937 31.25497192 -164.78051758 31.57885742 C-153.24014427 34.51004977 -142.11486418 38.76846677 -131 43 C-130.62560791 41.99876099 -130.62560791 41.99876099 -130.24365234 40.97729492 C-128.46032501 36.34190863 -126.84504834 32.15992865 -123.625 28.3125 C-123.01011719 27.57386719 -122.39523438 26.83523437 -121.76171875 26.07421875 C-121.18035156 25.38972656 -120.59898437 24.70523438 -120 24 C-119.35998047 23.14341797 -119.35998047 23.14341797 -118.70703125 22.26953125 C-107.59166388 7.87085537 -87.31090792 -4.06434893 -69.40039062 -6.73486328 C-46.37193811 -9.27848609 -22.25796669 -6.00889135 0 0 Z " fill="#F38F0B" transform="translate(273,98)"></path><path d="M0 0 C0 5.04903658 -1.98908827 6.65270684 -5.3125 10.0625 C-5.85865967 10.63468262 -6.40481934 11.20686523 -6.9675293 11.79638672 C-8.09608409 12.97405168 -9.22934389 14.14722528 -10.3671875 15.31591797 C-11.83547292 16.83030684 -13.2787847 18.36881408 -14.71875 19.91015625 C-28.09127132 33.90699709 -44.93830474 45.54129891 -64 50 C-65.03769531 50.26425781 -66.07539063 50.52851563 -67.14453125 50.80078125 C-77.61295778 53.37218753 -87.88016371 54.12495994 -98.625 54.5625 C-99.62917969 54.60568359 -100.63335937 54.64886719 -101.66796875 54.69335938 C-104.11188383 54.79809859 -106.55587617 54.90027256 -109 55 C-103.90514476 59.57111622 -103.90514476 59.57111622 -97.48046875 61.26171875 C-96.39378906 61.07222656 -95.30710937 60.88273437 -94.1875 60.6875 C-88.39597725 59.7301674 -88.39597725 59.7301674 -86.1484375 61.26171875 C-84.12610932 64.32272568 -84.47925863 66.41267055 -85 70 C-88.54429196 77.47791902 -95.03310294 84.68562134 -102.58203125 88.203125 C-105.57251383 89.18867984 -107.87114729 89.34009269 -111 89 C-112.875 87.9375 -112.875 87.9375 -114 86 C-114.3862557 81.75118727 -114.3297964 78.64030688 -112 75 C-112.72832031 74.73445313 -113.45664063 74.46890625 -114.20703125 74.1953125 C-116.99521318 73.00204863 -119.1986886 71.59833156 -121.6875 69.875 C-138.74548665 58.87648582 -158.87525772 52.66317724 -178.65332031 48.82348633 C-183.6778849 47.79173788 -187.38765663 46.91154757 -191 43 C-192.22919566 40.3131741 -192.3526617 37.92205411 -192 35 C-189.73188682 30.62019523 -189.73188682 30.62019523 -187 29 C-180.40683306 28.04801755 -173.82623257 29.35272247 -167.4375 30.9375 C-166.1222937 31.25497192 -166.1222937 31.25497192 -164.78051758 31.57885742 C-153.24014427 34.51004977 -142.11486418 38.76846677 -131 43 C-130.62560791 41.99876099 -130.62560791 41.99876099 -130.24365234 40.97729492 C-128.46032501 36.34190863 -126.84504834 32.15992865 -123.625 28.3125 C-123.01011719 27.57386719 -122.39523438 26.83523437 -121.76171875 26.07421875 C-121.18035156 25.38972656 -120.59898437 24.70523438 -120 24 C-119.35998047 23.14341797 -119.35998047 23.14341797 -118.70703125 22.26953125 C-107.59166388 7.87085537 -87.31090792 -4.06434893 -69.40039062 -6.73486328 C-46.37193811 -9.27848609 -22.25796669 -6.00889135 0 0 Z " fill="#5D903A" transform="translate(273,98)"></path><path d="M0 0 C1.32233643 0.32508545 1.32233643 0.32508545 2.67138672 0.65673828 C10.06658429 2.56588424 17.30302247 4.88578504 24.5 7.4375 C25.53721191 7.78804443 26.57442383 8.13858887 27.64306641 8.49975586 C34.75172167 11.13748791 34.75172167 11.13748791 36.57324219 13.84082031 C37.23909958 15.55747 37.81248683 17.30926552 38.375 19.0625 C41.62518038 21.66994808 45.52048818 21.43273709 49.5625 21.75 C54.71642951 22.25675163 58.14061557 23.12778445 62 26.75 C64.79025565 29.34323378 65.82523316 30.04120621 69.703125 30.19140625 C71.99610442 29.9464514 74.2831585 29.63175832 76.5546875 29.234375 C79.375 29.0625 79.375 29.0625 81.22265625 30.3203125 C83.24852678 33.38315405 82.89628593 35.47141916 82.375 39.0625 C78.83070804 46.54041902 72.34189706 53.74812134 64.79296875 57.265625 C61.80248617 58.25117984 59.50385271 58.40259269 56.375 58.0625 C54.5 57 54.5 57 53.375 55.0625 C52.9887443 50.81368727 53.0452036 47.70280688 55.375 44.0625 C54.64667969 43.79695313 53.91835937 43.53140625 53.16796875 43.2578125 C50.37978682 42.06454863 48.1763114 40.66083156 45.6875 38.9375 C28.62951335 27.93898582 8.49974228 21.72567724 -11.27832031 17.88598633 C-16.3028849 16.85423788 -20.01265663 15.97404757 -23.625 12.0625 C-24.85419566 9.3756741 -24.9776617 6.98455411 -24.625 4.0625 C-19.63754165 -5.56845406 -8.98527943 -2.22390501 0 0 Z " fill="#682212" transform="translate(105.625,128.9375)"></path></svg>